<svg xmlns="http://www.w3.org/2000/svg" width="144" height="123">
  <g fill="none">
    <path fill="#FFF" d="M0 0h144v123H0z"/>
    <path fill="#000" d="M50.619 104.743c.325 0 .606.25.458.822l-1.494.396c.237-.704.68-1.218 1.036-1.218m.828 2.407h-.296c-.37.44-.784.792-1.183.792-.415 0-.622-.25-.622-.792 0-.22.03-.455.074-.66l2.412-.793c.473-1.115-.089-1.6-.755-1.6-1.139 0-2.44 1.982-2.44 3.566 0 .749.354 1.16.916 1.16.651-.015 1.332-.646 1.894-1.673m-.384-3.58l1.376-1.248v-.176h-.918l-.814 1.423h.356zm-5.15 1.203h.8l-1.273 3.463c-.118.293.045.586.355.586.903 0 1.983-.763 2.397-1.848h-.222c-.325.455-1.035.953-1.568 1.041l1.169-3.242h1.198l.148-.5h-1.169l.444-1.246h-.458l-.829 1.247-.991.132v.367zm-.828-.162c.104-.323-.118-.499-.28-.499-.696 0-1.525.617-1.865 1.497h.222c.222-.323.606-.675.976-.734l-1.331 3.449c-.119.322.118.498.28.498.667 0 1.436-.63 1.776-1.496h-.236c-.222.323-.607.675-.977.733l1.435-3.448zm.133-1.379a.544.544 0 00.548-.543.554.554 0 00-.548-.543c-.31 0-.547.25-.547.543 0 .294.251.543.547.543m-6.465 1.834c.207 0 .325.323 0 1.027l-.947 2.084c-.178.396.015.645.4.645.236 0 .34-.058.443-.308l.932-2.435c.43-.514 1.228-1.072 1.569-1.072.251 0 .222.206.059.514l-1.42 2.715a.4.4 0 00.355.586c.695 0 1.523-.616 1.864-1.496h-.222c-.222.323-.607.675-.977.733l1.228-2.45c.163-.308.237-.602.237-.836 0-.397-.222-.66-.65-.66-.608 0-1.125.674-1.85 1.51v-.645c0-.455-.148-.866-.563-.866-.488 0-.932.749-1.272 1.497h.222c.207-.352.414-.543.592-.543m-.962.088c.163-.557.074-1.056-.355-1.056-.547 0-.71.367-1.258 1.511v-.646c0-.454-.148-.865-.562-.865-.488 0-.932.748-1.272 1.496h.222c.236-.337.458-.543.636-.543.207 0 .325.323 0 1.028l-.947 2.083c-.178.396.015.646.4.646.236 0 .34-.059.443-.308l.932-2.436c.267-.323.503-.602.8-.91h.961zm-5.134-.41c.326 0 .607.249.459.821l-1.495.396c.237-.704.681-1.218 1.036-1.218m.829 2.407h-.296c-.37.44-.784.792-1.184.792-.414 0-.621-.25-.621-.792 0-.22.03-.455.074-.66l2.411-.793c.474-1.115-.088-1.6-.754-1.6-1.14 0-2.442 1.982-2.442 3.566 0 .749.356 1.16.918 1.16.65-.015 1.331-.646 1.894-1.673m-5.534-2.377h.8l-1.273 3.463c-.119.293.044.586.355.586.902 0 1.982-.763 2.397-1.848h-.222c-.326.455-1.036.953-1.569 1.041l1.17-3.242h1.198l.148-.5h-1.17l.445-1.246h-.46l-.828 1.247-.99.132v.367zm-4.231 2.685c0-1.071 1.198-2.51 1.864-2.51.148 0 .296.015.414.06l-.695 1.848c-.4.484-1.021 1.071-1.317 1.071-.163 0-.266-.146-.266-.47m3.669-3.55l-.37-.03-.414.411h-.074c-1.76 0-3.64 2.172-3.64 3.874 0 .396.222.66.651.66.518 0 1.02-.733 1.583-1.51l-.03.278c-.073.792.178 1.232.592 1.232.489 0 .933-.748 1.273-1.496h-.222c-.237.337-.459.543-.636.543-.178 0-.311-.323 0-1.027l1.287-2.935zm-3.758 1.247c.163-.557.074-1.056-.355-1.056-.548 0-.71.367-1.258 1.511v-.646c0-.454-.148-.865-.562-.865-.488 0-.932.748-1.273 1.496h.222c.237-.337.46-.543.622-.543.207 0 .325.323 0 1.028l-.947 2.098c-.178.396.015.645.4.645.236 0 .34-.058.443-.308l.932-2.435c.267-.323.503-.602.8-.91h.976v-.015zm-6.185 3.492l.09-.264c-1.17-.22-1.318-.22-.844-1.467l.429-1.174h.932c.577 0 .577.25.503.88h.325l.77-2.083h-.326c-.28.499-.517.88-1.139.88h-.932l.636-1.716c.222-.617.326-.734 1.125-.734h.207c.814 0 .902.22.902 1.071h.326l.266-1.423h-4.483l-.089.264c.932.19 1.021.279.592 1.467l-.962 2.553c-.443 1.189-.621 1.277-1.686 1.468l-.089.278h3.447zm22.297-13.968c.326 0 .607.249.459.807l-1.495.396c.252-.69.696-1.203 1.036-1.203m.829 2.391h-.296c-.37.44-.784.793-1.184.793-.414 0-.621-.25-.621-.793 0-.22.03-.455.074-.66l2.426-.792c.474-1.116-.103-1.6-.754-1.6-1.14 0-2.442 1.981-2.442 3.566 0 .748.355 1.159.918 1.159.65 0 1.331-.63 1.879-1.673m-.385-3.565l1.376-1.247v-.177h-.917l-.814 1.424h.355zm-5.134 1.203h.799L34.58 98.17c-.118.293.045.587.356.587.902 0 1.982-.763 2.396-1.85h-.222c-.325.456-1.035.955-1.568 1.043l1.169-3.243h1.198l.148-.499H36.89l.443-1.247h-.458l-.829 1.247-.991.132v.367zm-.829-.176c.09-.323-.118-.499-.296-.499-.695 0-1.523.63-1.864 1.497h.222c.222-.323.607-.675.977-.734l-1.332 3.448c-.118.323.118.499.281.499.666 0 1.435-.63 1.776-1.497h-.222c-.222.323-.607.675-.977.734l1.435-3.448zm.134-1.365c.295 0 .547-.25.547-.543a.554.554 0 00-.547-.543c-.311 0-.548.25-.548.543 0 .294.252.543.548.543m-4.276 4.813l2.204-5.81-.074-.089-1.524.177v.176l.296.22c.266.205.178.396-.059 1.041l-1.687 4.461a.4.4 0 00.355.587c.696 0 1.436-.63 1.776-1.497h-.222c-.237.323-.71.675-1.065.734m-4.513-.587c0-1.071 1.198-2.509 1.864-2.509.148 0 .281.015.415.059l-.696 1.848c-.4.485-1.02 1.072-1.302 1.072-.177 0-.281-.147-.281-.47m3.67-3.55l-.37-.03-.415.41h-.074c-1.76 0-3.64 2.172-3.64 3.874 0 .397.222.66.651.66.518 0 1.021-.733 1.584-1.51l-.03.278c-.074.793.178 1.233.592 1.233.488 0 .932-.749 1.272-1.497h-.222c-.236.338-.458.543-.636.543-.177 0-.31-.323 0-1.027l1.287-2.935zm-8.538 5.751c0-.455.444-.748 1.08-.998.208.103.518.22.947.352.666.22.918.309.918.5 0 .425-.607.748-1.717.748-.828 0-1.228-.176-1.228-.602m1.82-2.803c-.296 0-.4-.249-.4-.513 0-.851.415-1.908 1.08-1.908.297 0 .4.25.4.514-.015.866-.429 1.907-1.08 1.907m1.88 2.378c0-.558-.504-.749-1.318-.998-.695-.206-1.006-.264-1.006-.5 0-.175.148-.395.444-.557 1.154-.058 1.88-1.086 1.88-1.98 0-.162-.03-.309-.075-.44h.784l.148-.5h-1.331a1.166 1.166 0 00-.651-.176c-1.213 0-1.983 1.057-1.983 1.981 0 .602.355 1.013.903 1.086-.563.264-.888.543-.888.895 0 .205.074.352.251.47-1.302.381-1.834.85-1.834 1.423 0 .601.799.85 1.73.85 1.614.016 2.945-.835 2.945-1.554m-6.007-3.507c.577 0 .592.25.503.88h.326l.77-2.084h-.326c-.281.5-.518.88-1.14.88h-1.272l.621-1.716c.222-.616.326-.734 1.125-.734h.562c.814 0 .903.22.903 1.072h.325l.266-1.424h-4.823l-.089.264c.932.191 1.021.28.592 1.468l-.962 2.568c-.443 1.188-.621 1.276-1.701 1.467L14 98.58h5.356l.962-1.512h-.37c-.622.602-1.243 1.16-2.456 1.16-1.42 0-1.302-.074-.829-1.38l.444-1.174h1.287v-.014zm.696-3.58l1.376-.984v-.176h-.918l-.813 1.174h.355v-.015zm20.491-7.47c.326 0 .607.25.459.808l-1.494.396c.236-.69.68-1.203 1.035-1.203m.829 2.392h-.296c-.37.44-.784.792-1.184.792-.414 0-.621-.25-.621-.792 0-.22.03-.455.074-.66l2.412-.793c.473-1.115-.104-1.6-.755-1.6-1.14 0-2.441 1.981-2.441 3.566 0 .748.355 1.145.917 1.145.651.014 1.332-.617 1.894-1.658m-.385-3.566l1.376-1.247v-.176h-.917l-.814 1.423h.355zm-5.149 1.203h.8l-1.273 3.463c-.118.293.044.587.355.587.903 0 1.983-.763 2.397-1.849h-.222c-.326.455-1.036.954-1.568 1.042l1.168-3.243h1.199l.148-.499H36.71l.444-1.247h-.459l-.828 1.247-.992.132v.367zm-.414.382c.163-.558.074-1.057-.355-1.057-.547 0-.71.367-1.258 1.512v-.646c0-.455-.148-.866-.562-.866-.488 0-.932.749-1.272 1.497h.222c.236-.338.458-.543.621-.543.207 0 .326.323 0 1.027l-.947 2.084c-.177.396.015.645.4.645.236 0 .34-.058.444-.308l.932-2.436c.266-.322.503-.601.799-.91h.976zm-5.149-.411c.326 0 .607.25.459.807l-1.494.396c.251-.69.68-1.203 1.035-1.203m.829 2.392h-.296c-.37.44-.784.792-1.184.792-.414 0-.621-.25-.621-.792 0-.22.03-.455.074-.66l2.412-.793c.473-1.115-.09-1.6-.755-1.6-1.14 0-2.441 1.981-2.441 3.566 0 .748.355 1.145.917 1.145.651.014 1.332-.617 1.894-1.658m-5.637.968c-.237 0-.577-.22-.577-.41 0-.06.103-.324.236-.661l.385-1.027c.414-.5 1.065-1.027 1.42-1.027.222 0 .385.132.385.454.015.954-.888 2.671-1.85 2.671m2.694-3.037c0-.705-.178-.969-.681-.969-.621 0-1.198.66-1.776 1.453l1.243-3.302-.074-.102-1.524.176v.176l.296.22c.267.205.178.41-.059 1.042l-1.346 3.492c-.119.293-.252.646-.252.734 0 .41.562.807 1.08.807 1.154.014 3.093-2.099 3.093-3.727m-4.528-.47c.089-.323-.118-.499-.296-.499-.695 0-1.524.631-1.864 1.497h.222c.222-.323.607-.675.976-.734l-1.331 3.448c-.119.323.118.5.296.5.666 0 1.435-.632 1.775-1.497h-.222c-.222.322-.606.675-.976.733l1.42-3.448zm.148-1.38c.296 0 .548-.249.548-.542a.554.554 0 00-.548-.543.544.544 0 100 1.086m-3.403-.646h-3.18l-.09.264c.932.191 1.021.28.592 1.468l-.962 2.597c-.443 1.188-.621 1.276-1.686 1.467L14 88.5h4.838l1.05-1.849h-.37c-.606.66-1.287 1.497-2.367 1.497-.813 0-.932-.147-.473-1.38l.947-2.582c.444-1.188.621-1.276 1.701-1.467l.09-.279z"/>
    <path fill="#1E1E1E" d="M18.803 47.803c1.894 0 3.392-1.153 3.421-3.08 0-3.504-4.67-2.978-4.67-4.832 0-.614.485-1.08 1.22-1.08.778 0 1.453.51 2.055 1.284l1.527-1.372C21.476 37.686 20.301 37 18.76 37c-1.968 0-3.319 1.343-3.319 2.964 0 3.46 4.67 2.948 4.67 4.832 0 .73-.5 1.168-1.322 1.168-.837 0-1.659-.468-2.276-1.256L15 46.095c.91 1.08 2.07 1.708 3.803 1.708zm11.814-.292v-1.723H26.71v-2.627h3.318v-1.723h-3.318v-2.423h3.906v-1.723h-5.991v10.219h5.99zm4.721 0V43.38h1.072l2.746 4.13h2.452l-3.215-4.525c1.057-.481 1.659-1.401 1.659-2.642 0-1.898-1.395-3.051-3.656-3.051h-3.143v10.219h2.085zm1.175-5.854h-1.175v-2.642h1.175c.881 0 1.395.525 1.395 1.299 0 .832-.514 1.343-1.395 1.343zm11.564 5.854l3.891-10.219h-2.217l-3.04 7.985-3.039-7.985h-2.217l3.891 10.219h2.731zm7.776 0V37.292h-2.085v10.219h2.085zm7.673.292c1.865 0 3.392-.818 4.332-2.088l-1.645-1.255c-.587.832-1.512 1.401-2.687 1.401-1.938 0-3.318-1.503-3.318-3.46 0-1.956 1.38-3.46 3.318-3.46 1.175 0 2.1.57 2.687 1.402l1.645-1.27C66.918 37.833 65.39 37 63.526 37c-3.245 0-5.462 2.482-5.462 5.401 0 2.92 2.217 5.402 5.462 5.402zm12.343-.292v-1.723h-3.906v-2.627h3.318v-1.723h-3.318v-2.423h3.906v-1.723h-5.991v10.219h5.99zm8.753 0V43.38h1.307c2.261 0 3.641-1.154 3.641-3.037 0-1.898-1.38-3.051-3.641-3.051h-3.392v10.219h2.085zm1.395-5.854h-1.395v-2.642h1.395c.881 0 1.41.525 1.41 1.299 0 .832-.529 1.343-1.41 1.343zm9.464 6.146c2.585 0 4.17-1.606 4.17-4.292v-6.219h-2.085v6.394c0 1.372-.792 2.175-2.07 2.175-1.307 0-2.085-.803-2.085-2.175v-6.394h-2.085v6.219c0 2.686 1.586 4.292 4.155 4.292zm10.214-.292c2.364 0 3.817-1.139 3.817-3.007 0-1.066-.602-1.942-1.688-2.424.72-.467 1.101-1.182 1.101-2.014 0-1.723-1.307-2.774-3.45-2.774h-3.025v10.219h3.245zm-.176-6.19h-.984v-2.306h.984c.792 0 1.262.423 1.262 1.138 0 .745-.47 1.168-1.262 1.168zm.293 4.467h-1.277v-2.744h1.277c.97 0 1.557.496 1.557 1.372 0 .861-.588 1.372-1.557 1.372zm12.049 1.723v-1.883h-3.906v-8.336h-2.085v10.219h5.99zm4.134 0V37.292h-2.085v10.219h2.085zm7.674.292c1.864 0 3.391-.818 4.331-2.088l-1.645-1.255c-.587.832-1.512 1.401-2.686 1.401-1.939 0-3.319-1.503-3.319-3.46 0-1.956 1.38-3.46 3.319-3.46 1.174 0 2.1.57 2.686 1.402l1.645-1.27c-.94-1.24-2.467-2.073-4.331-2.073-3.245 0-5.463 2.482-5.463 5.401 0 2.92 2.218 5.402 5.463 5.402zM19.963 62.109c3.26 0 5.462-2.35 5.462-5.109 0-2.76-2.202-5.11-5.462-5.11h-4.038v10.22h4.038zm.03-1.883H18.01v-6.452h1.982c1.909 0 3.29 1.401 3.29 3.226 0 1.81-1.381 3.226-3.29 3.226zM33.64 62.11v-1.722h-3.905v-2.628h3.318v-1.723h-3.318v-2.423h3.905v-1.722h-5.99v10.218h5.99zm12.66 0v-1.883h-3.906v-8.335H40.31v10.218h5.99zm1.506-6.014l1.703-4.204h-2.114l-1.322 4.204h1.733zm5.632 6.014V51.891h-2.085v10.218h2.085zm5.177 0v-7.386l4.596 7.386h2.672V51.891H63.8v7.386l-4.596-7.386h-2.672v10.218h2.085zm13.238.292c1.894 0 3.392-1.153 3.421-3.08 0-3.503-4.67-2.978-4.67-4.832 0-.613.485-1.08 1.22-1.08.778 0 1.453.51 2.055 1.284l1.527-1.372c-.88-1.036-2.055-1.722-3.597-1.722-1.968 0-3.318 1.343-3.318 2.963 0 3.46 4.669 2.949 4.669 4.832 0 .73-.5 1.168-1.322 1.168-.837 0-1.659-.467-2.276-1.255l-1.512 1.386c.91 1.08 2.07 1.708 3.803 1.708zm11.814-.292v-1.722h-3.906v-2.628h3.318v-1.723h-3.318v-2.423h3.906v-1.722h-5.991v10.218h5.99zm4.722 0v-4.13h1.071l2.746 4.13h2.452l-3.215-4.525c1.057-.482 1.659-1.402 1.659-2.642 0-1.898-1.395-3.051-3.656-3.051h-3.142v10.218h2.085zm1.174-5.854H88.39v-2.642h1.174c.881 0 1.395.526 1.395 1.3 0 .832-.514 1.342-1.395 1.342zM99.94 62.11v-8.335h3.172V51.89h-8.429v1.883h3.172v8.335h2.085zm7.306 0V51.891h-2.085v10.218h2.085zm7.673.292c3.23 0 5.448-2.481 5.448-5.401s-2.218-5.401-5.448-5.401c-3.245 0-5.462 2.481-5.462 5.401s2.217 5.401 5.462 5.401zm0-1.941c-1.938 0-3.318-1.504-3.318-3.46s1.38-3.46 3.318-3.46c1.924 0 3.304 1.504 3.304 3.46s-1.38 3.46-3.304 3.46zm9.744 1.65v-7.387l4.595 7.386h2.673V51.891h-2.085v7.386l-4.596-7.386h-2.672v10.218h2.085zM21.916 76.707v-1.723H18.01v-2.627h3.318v-1.723H18.01v-2.423h3.906v-1.723h-5.991v10.219h5.99zm7.056 0v-8.336h3.172V66.49h-8.428v1.883h3.171v8.336h2.085zm13.29 0c3.26 0 5.463-2.35 5.463-5.11 0-2.759-2.203-5.109-5.462-5.109h-4.038v10.219h4.038zm.03-1.883H40.31v-6.453h1.982c1.909 0 3.29 1.402 3.29 3.227 0 1.81-1.381 3.226-3.29 3.226zm13.65 1.883v-1.723h-3.906v-2.627h3.318v-1.723h-3.318v-2.423h3.905v-1.723h-5.99v10.219h5.99zm12.658 0v-1.883h-3.905v-8.336H62.61v10.219h5.99zm1.507-6.015l1.703-4.204h-2.114l-1.322 4.204h1.733zm9.538 6.015v-1.723h-3.906v-2.627h3.318v-1.723H75.74v-2.423h3.906v-1.723h-5.991v10.219h5.99zm4.721 0V69.38l2.291 3.824h1.468l2.29-3.824v7.328h2.086V66.489h-2.6l-2.51 4.292-2.51-4.292h-2.6v10.219h2.085zm13.297 0v-4.131h1.307c2.261 0 3.641-1.154 3.641-3.037 0-1.898-1.38-3.05-3.641-3.05h-3.392v10.218h2.085zm1.395-5.854h-1.395v-2.642h1.395c.881 0 1.41.525 1.41 1.299 0 .832-.529 1.343-1.41 1.343zm11.476 5.854v-1.883h-3.906v-8.336h-2.085v10.219h5.991zm6.264.292c3.23 0 5.447-2.482 5.447-5.401 0-2.92-2.217-5.402-5.447-5.402-3.245 0-5.463 2.482-5.463 5.402S113.553 77 116.798 77zm0-1.942c-1.939 0-3.319-1.503-3.319-3.46 0-1.956 1.38-3.46 3.319-3.46 1.923 0 3.303 1.504 3.303 3.46 0 1.957-1.38 3.46-3.303 3.46zm9.743 1.65V66.489h-2.085v10.219h2.085z"/>
    <path fill="#FFF" d="M15 15h39.678v13.877H15z"/>
    <path fill="#000091" d="M31.46 27.246c.154-.149.308-.307.463-.469h-.005c.29-.315.57-.617.907-.892.102-.09.2-.167.294-.23.028-.027.028-.081.056-.104-.135.05-.215.158-.355.207-.028 0-.056-.027-.028-.054.098-.067.196-.14.29-.211h-.02c-.027 0-.027-.028-.027-.055-.355-.054-.626.185-.87.393-.055.027-.107-.027-.135-.027-.407.13-.706.473-1.112.626v-.054c-.164.054-.323.149-.49.185-.244.054-.464.027-.679.027-.331.031-.659.103-.986.171-.009.005-.018.005-.028.009a2.091 2.091 0 00-.504.198l-.02.01c-.013.017-.027.03-.037.044a.624.624 0 01-.186.158c-.169.081-.304.226-.45.338-.008.01-.027.014-.041.014-.145.135-.29.27-.44.4-.009.01-.05.014-.084.01 0 0 .005 0 .005-.005l.014-.027.07-.108c.028-.04.052-.081.08-.122.037-.054.074-.108.116-.157.01-.014.01-.027 0-.036a.054.054 0 00-.037-.014c.136-.126.295-.234.458-.329v-.004c-.019.004-.047-.01-.033-.027.02-.023.033-.05.047-.073l.01-.022c-.005-.01-.015-.014-.02-.023-.041.027-.088.054-.125.086-.066.054-.117.171-.215.171-.005 0-.028 0-.042-.004-.014 0-.024-.005-.029-.01 0-.004 0-.004.005-.004 0 0 .005-.004.005-.009 0 0 0-.004.005-.004.004-.01.009-.014.014-.023.004-.009.009-.013.014-.022.004-.005.004-.014.009-.018.005-.01.014-.023.019-.036.004-.01.009-.014.014-.023.014-.018.023-.04.037-.059a.094.094 0 01.019-.027l.028-.05c.014-.022 0-.04-.019-.044a.624.624 0 01.187-.158h-.01c.103-.05.21-.113.314-.167.014-.013.028-.027.046-.036a1.71 1.71 0 00-.43.208s-.037.013-.046.022c0 0-.028.01-.066-.022-.004-.005-.004-.01-.004-.018.028-.055.107-.077.163-.131.028 0 .052 0 .052.027.869-.654 2.065-.496 3.07-.838.08-.055.164-.104.243-.158.136-.054.243-.185.407-.262.215-.157.378-.338.462-.604 0-.027-.028-.054-.028-.054a4.288 4.288 0 01-1.196.866c-.57.288-1.196.239-1.79.315.028-.054.084-.054.136-.054 0-.081.051-.104.107-.158h.08c.028 0 .028-.054.056-.054.056 0 .135-.027.107-.027-.084-.103-.243.077-.378 0 .05-.054.028-.13.079-.158h.107c0-.054.057-.103.057-.103.406-.235.79-.42 1.168-.627-.08 0-.136.081-.215.027.056 0 0-.076.056-.076.3-.077.542-.235.841-.343-.107 0-.191.081-.299 0 .056-.027.08-.076.164-.076v-.077c0-.027.028-.027.056-.027-.028 0-.056-.027-.056-.027.028-.054.107-.027.163-.077-.028 0-.08 0-.08-.027.08-.103.216-.13.351-.158-.028-.054-.107 0-.107-.054 0-.027.028-.027.056-.027h-.056c-.056-.027-.028-.08-.028-.103.163-.185.163-.42.243-.627-.028 0-.056 0-.056-.027-.271.289-.706.392-1.113.496H30.1a.556.556 0 01-.463-.027c-.107-.054-.163-.13-.27-.207a3.408 3.408 0 00-.678-.316 6.326 6.326 0 00-2.09-.288c.3-.158.627-.172.95-.262.462-.13.897-.288 1.383-.261-.08-.027-.192 0-.271 0-.379-.027-.762.076-1.169.158-.27.054-.514.157-.79.207-.163.054-.243.207-.434.185v-.081c.27-.316.598-.627 1.033-.654.49-.077.948 0 1.439.054.35.027.678.104 1.033.185.135 0 .163.207.27.234.164.054.328 0 .492.104 0-.054-.028-.104 0-.158.107-.104.243.027.35-.027.22-.13-.192-.365-.299-.55 0-.027.028-.054.028-.054.215.185.379.392.65.523.135.054.462.13.406-.027-.135-.289-.406-.523-.626-.784v-.104c-.056 0-.056-.027-.08-.054v-.104c-.107-.054-.084-.157-.135-.234-.084-.13-.028-.316-.084-.473a2.58 2.58 0 01-.108-.447c-.084-.446-.191-.838-.243-1.257-.056-.496.3-.892.542-1.334.192-.316.407-.627.762-.838.08-.316.3-.577.514-.839.215-.257.58-.41.837-.523.378-.162.72-.266.724-.266H15v13.878h13.32c.518-.36 1.032-.527 1.757-.875.336-.162 1.117-.509 1.383-.761m-4.178-1.875c-.056 0-.164.027-.136-.027.028-.13.215-.13.327-.185.057-.027.136-.077.192-.054.056.077.136.054.192.104-.169.162-.384.08-.575.162m-4.155-.577s-.028-.027-.028-.054a7.97 7.97 0 00.87-1.334c.355-.185.644-.451.925-.735.462-.473.948-.892 1.519-1.154.215-.08.49-.054.705.027-.08.104-.215.077-.327.158-.028 0-.056 0-.084-.027.028-.027.028-.054.028-.081-.271.288-.65.419-.87.762-.163.261-.27.604-.62.68-.108.027.027-.076-.029-.054-.841.5-1.435 1.104-2.089 1.812m2.253-1.73c-.028.053-.056.058-.08.103a.215.215 0 01-.107.104c-.028 0-.056 0-.056-.028.028-.103.107-.207.215-.234.028.005.028.032.028.054m1.262 3.926c-.014.027-.042.054-.066.077.033.004.056.022.038.04-.061.054-.122.113-.206.14-.005 0-.023.004-.042.004a.964.964 0 01-.103.09c-.033.027-.182.01-.136-.031.07-.059.136-.122.201-.185.038-.036.08-.068.113-.104.018-.022.032-.04.056-.058.023-.014.168-.027.145.027m-.486-.216c-.005 0-.005 0-.005.004-.103.068-.201.14-.309.198-.116.063-.238.113-.36.172 0 0 0-.005-.004-.005-.01-.013-.028-.018-.047-.009a1.198 1.198 0 00-.27.203.14.14 0 00-.038.036l-.038.036-.004.005v.004c-.02.018-.038.036-.061.063-.014.014-.019.027-.037.036-.02.01-.066.01-.061-.018v-.004a.222.222 0 01-.047.022c-.014.01-.028.014-.042.023-.005-.005-.014-.005-.019-.005-.004 0-.014 0-.018.005-.033.027-.066.05-.099.08-.056.05-.107.105-.158.163 0 0 0 .005-.005.005 0 .004-.005.004-.005.009l-.01.009c-.004.004-.004.009-.009.009l-.004.004a.094.094 0 01-.019.027.036.036 0 01-.023.01c-.005-.005-.01-.01-.01-.014-.004-.005-.004-.01-.009-.014-.01-.013-.014-.027-.023-.04v-.005c0-.004-.005-.009-.005-.013l.084-.095.005-.005c.01-.009.019-.022.028-.031.014-.018.033-.036.047-.054.004-.01.009-.014.014-.023.028-.036.056-.072.084-.112v-.005c.004-.004.01-.009.01-.018.013-.018.027-.036.036-.054l.029-.054v-.005l.004-.004c0-.005.005-.005.005-.01l.028-.062v-.005l.005-.018c.004-.009.004-.018.009-.027v-.004c.005-.014.005-.027.01-.04 0-.005 0-.014-.005-.019a.75.75 0 01.107-.14c-.005 0-.01.005-.014.005-.037.022-.065.058-.103.086-.028.022-.084-.014-.046-.041.023-.018.042-.036.06-.054 0 0 0-.005.005-.005.047-.04.089-.094.14-.13a1.314 1.314 0 00.098-.072.792.792 0 01.061-.068s.005 0 .005-.005c.261-.243.696-.23 1.042-.383.135-.054.299.027.435 0 .079 0 .163 0 .243.054-.239.122-.463.266-.687.402m.257-4.03c.028 0 .084 0 .084.027a.26.26 0 01-.22.262c.22.054.435.054.65.157-.028.054-.08.027-.108.027.136.077.3.027.435.131-.084.077-.164 0-.243 0 .841.235 1.738.42 2.444.942-.598.289-1.224.42-1.874.55-.08 0-.136 0-.215-.027 0 .027 0 .077-.028.077-.108 0-.192 0-.271.054-.112.058-.276.085-.355.009-.028-.027.084 0 .107-.054h-.215c-.028 0-.028-.027-.028-.054-.135.027-.299.076-.434.103-.192.054-.356.185-.57.235-.3.103-.543.342-.87.446-.028 0-.028-.027-.028-.054.028-.077.136-.104.192-.185 0-.027 0-.054-.028-.054.215-.289.514-.446.79-.68v-.082c.079-.104.214-.158.27-.288.029-.077.136-.185.272-.235-.028-.027-.08-.027-.08-.076-.107 0-.22.054-.327-.027a.393.393 0 01.168-.095.096.096 0 01-.06-.036c-.029-.054.05-.113.135-.13.107-.028.243-.028.327-.104-.191-.028-.406.054-.598-.055.135-.338.355-.626.678-.784z"/>
    <path fill="#E1000F" d="M54.64 15H39.18s.028.005.145.063c.127.063.29.149.388.199.201.099.393.225.519.42.056.076.136.234.084.338-.056.13-.084.342-.22.392-.163.081-.378.081-.57.054-.107 0-.215-.027-.327-.054.407.158.79.343 1.061.708.028.055.136.077.243.077.028 0 .028.054.028.077-.056.054-.107.081-.08.158h.08c.136-.054.108-.316.3-.235.135.077.19.262.107.393a2.435 2.435 0 01-.327.261.214.214 0 000 .185c.079.104.107.208.135.316.084.185.108.393.192.578.107.392.215.785.191 1.182 0 .207-.107.392-.028.604.056.208.192.366.3.55.107.158.214.262.298.42.164.262.463.523.328.84-.08.184-.379.157-.57.26-.164.132-.029.344.056.475.135.234-.164.392-.356.473.056.081.164.054.192.104.028.13.164.208.08.343-.108.158-.435.235-.272.474.108.185.038.388-.028.577-.08.235-.299.338-.49.393a1.108 1.108 0 01-.515.027c-.056-.027-.107-.054-.163-.054-.463-.055-.925-.18-1.383-.18-.136.026-.271.049-.379.103a2.17 2.17 0 00-.327.28l-.005.004c-.018.023-.042.04-.06.063-.01.014-.024.027-.033.04-.01.01-.014.019-.024.028-.08.095-.15.198-.215.302-.004.01-.009.014-.014.018-.004.014-.014.023-.023.036-.089.158-.154.32-.206.483-.187.6-.102 1.114.028 1.24.038.037.898.294 1.496.551.28.122.477.212.64.311h15.18V15h.004z"/>
    <path fill="gray" d="M40.101 20.057c.108.027.271.027.271.08-.056.207-.378.261-.542.472h-.084c-.08.054-.056.184-.136.184-.079-.026-.163 0-.243.027.108.104.243.185.407.158.028 0 .08.053.08.103 0 0 .027 0 .056-.027.028 0 .056 0 .056.027v.103c-.08.103-.22.054-.328.077.22.053.435.053.627 0 .163-.054 0-.315.107-.445-.056 0 0-.08-.056-.08.056-.055.108-.131.164-.158.056 0 .135-.027.163-.08 0-.055-.107-.077-.084-.131.164-.103.3-.26.243-.418-.028-.08-.243-.08-.378-.13-.136-.05-.3 0-.463.027-.136 0-.271.08-.407.103a1.892 1.892 0 00-.514.26c.192-.076.379-.103.598-.157.164.005.3-.031.463.005"/>
  </g>
</svg>
