<svg xmlns="http://www.w3.org/2000/svg" width="100" height="90"><g fill="none" fill-rule="evenodd"><path fill="#FFF" d="M0 0h100v90H0z"/><path fill="#000" fill-rule="nonzero" d="M41.7 74.6c.264 0 .492.204.372.672l-1.212.324c.192-.576.552-.996.84-.996m.672 1.968h-.24c-.3.36-.636.648-.96.648-.336 0-.504-.204-.504-.648 0-.18.024-.372.06-.54l1.956-.648c.384-.912-.072-1.308-.612-1.308-.924 0-1.98 1.62-1.98 2.916 0 .612.288.948.744.948.528-.012 1.08-.528 1.536-1.368m-.312-2.928l1.116-1.02v-.144h-.744l-.66 1.164h.288zm-4.176.984h.648L37.5 77.456c-.096.24.036.48.288.48.732 0 1.608-.624 1.944-1.512h-.18c-.264.372-.84.78-1.272.852l.948-2.652h.972l.12-.408h-.948l.36-1.02h-.372l-.672 1.02-.804.108v.3zm-.672-.132c.084-.264-.096-.408-.228-.408-.564 0-1.236.504-1.512 1.224h.18c.18-.264.492-.552.792-.6l-1.08 2.82c-.096.264.096.408.228.408.54 0 1.164-.516 1.44-1.224h-.192c-.18.264-.492.552-.792.6l1.164-2.82zm.108-1.128a.443.443 0 100-.888.443.443 0 100 .888m-5.244 1.5c.168 0 .264.264 0 .84l-.768 1.704c-.144.324.012.528.324.528.192 0 .276-.048.36-.252l.756-1.992c.348-.42.996-.876 1.272-.876.204 0 .18.168.048.42l-1.152 2.22c-.108.216.036.48.288.48.564 0 1.236-.504 1.512-1.224h-.18c-.18.264-.492.552-.792.6l.996-2.004c.132-.252.192-.492.192-.684 0-.324-.18-.54-.528-.54-.492 0-.912.552-1.5 1.236v-.528c0-.372-.12-.708-.456-.708-.396 0-.756.612-1.032 1.224h.18c.168-.288.336-.444.48-.444m-.78.072c.132-.456.06-.864-.288-.864-.444 0-.576.3-1.02 1.236v-.528c0-.372-.12-.708-.456-.708-.396 0-.756.612-1.032 1.224h.18c.192-.276.372-.444.516-.444.168 0 .264.264 0 .84l-.768 1.704c-.144.324.012.528.324.528.192 0 .276-.048.36-.252l.756-1.992c.216-.264.408-.492.648-.744h.78zm-4.164-.336c.264 0 .492.204.372.672l-1.212.324c.192-.576.552-.996.84-.996m.672 1.968h-.24c-.3.36-.636.648-.96.648-.336 0-.504-.204-.504-.648 0-.18.024-.372.06-.54l1.956-.648c.384-.912-.072-1.308-.612-1.308-.924 0-1.98 1.62-1.98 2.916 0 .612.288.948.744.948.528-.012 1.08-.528 1.536-1.368m-4.488-1.944h.648l-1.032 2.832c-.096.24.036.48.288.48.732 0 1.608-.624 1.944-1.512h-.18c-.264.372-.84.78-1.272.852l.948-2.652h.972l.12-.408h-.948l.36-1.02h-.372l-.672 1.02-.804.108v.3zm-3.432 2.196c0-.876.972-2.052 1.512-2.052.12 0 .24.012.336.048l-.564 1.512c-.324.396-.828.876-1.068.876-.132 0-.216-.12-.216-.384m2.976-2.904l-.3-.024-.336.336h-.06c-1.428 0-2.952 1.776-2.952 3.168 0 .324.18.54.528.54.42 0 .828-.6 1.284-1.236l-.024.228c-.06.648.144 1.008.48 1.008.396 0 .756-.612 1.032-1.224h-.18c-.192.276-.372.444-.516.444-.144 0-.252-.264 0-.84l1.044-2.4zm-3.048 1.02c.132-.456.06-.864-.288-.864-.444 0-.576.3-1.02 1.236v-.528c0-.372-.12-.708-.456-.708-.396 0-.756.612-1.032 1.224h.18c.192-.276.372-.444.504-.444.168 0 .264.264 0 .84l-.768 1.716c-.144.324.012.528.324.528.192 0 .276-.048.36-.252l.756-1.992c.216-.264.408-.492.648-.744h.792v-.012zm-5.016 2.856l.072-.216c-.948-.18-1.068-.18-.684-1.2l.348-.96h.756c.468 0 .468.204.408.72h.264l.624-1.704h-.264c-.228.408-.42.72-.924.72h-.756l.516-1.404c.18-.504.264-.6.912-.6h.168c.66 0 .732.18.732.876h.264l.216-1.164h-3.636l-.072.216c.756.156.828.228.48 1.2l-.78 2.088c-.36.972-.504 1.044-1.368 1.2l-.072.228h2.796zM32.88 66.368c.264 0 .492.204.372.66l-1.212.324c.204-.564.564-.984.84-.984m.672 1.956h-.24c-.3.36-.636.648-.96.648-.336 0-.504-.204-.504-.648 0-.18.024-.372.06-.54l1.968-.648c.384-.912-.084-1.308-.612-1.308-.924 0-1.98 1.62-1.98 2.916 0 .612.288.948.744.948.528 0 1.08-.516 1.524-1.368m-.312-2.916l1.116-1.02v-.144h-.744l-.66 1.164h.288zm-4.164.984h.648l-1.032 2.832c-.096.24.036.48.288.48.732 0 1.608-.624 1.944-1.512h-.18c-.264.372-.84.78-1.272.852l.948-2.652h.972l.12-.408h-.948l.36-1.02h-.372l-.672 1.02-.804.108v.3zm-.672-.144c.072-.264-.096-.408-.24-.408-.564 0-1.236.516-1.512 1.224h.18c.18-.264.492-.552.792-.6l-1.08 2.82c-.096.264.096.408.228.408.54 0 1.164-.516 1.44-1.224h-.18c-.18.264-.492.552-.792.6l1.164-2.82zm.108-1.116a.45.45 0 00.444-.444.443.443 0 10-.444.444m-3.468 3.936l1.788-4.752-.06-.072-1.236.144v.144l.24.18c.216.168.144.324-.048.852l-1.368 3.648c-.108.216.036.48.288.48.564 0 1.164-.516 1.44-1.224h-.18c-.192.264-.576.552-.864.6m-3.66-.48c0-.876.972-2.052 1.512-2.052.12 0 .228.012.336.048l-.564 1.512c-.324.396-.828.876-1.056.876-.144 0-.228-.12-.228-.384m2.976-2.904l-.3-.024-.336.336h-.06c-1.428 0-2.952 1.776-2.952 3.168 0 .324.18.54.528.54.42 0 .828-.6 1.284-1.236l-.024.228c-.06.648.144 1.008.48 1.008.396 0 .756-.612 1.032-1.224h-.18c-.192.276-.372.444-.516.444-.144 0-.252-.264 0-.84l1.044-2.4zm-6.924 4.704c0-.372.36-.612.876-.816.168.084.42.18.768.288.54.18.744.252.744.408 0 .348-.492.612-1.392.612-.672 0-.996-.144-.996-.492m1.476-2.292c-.24 0-.324-.204-.324-.42 0-.696.336-1.56.876-1.56.24 0 .324.204.324.42-.012.708-.348 1.56-.876 1.56m1.524 1.944c0-.456-.408-.612-1.068-.816-.564-.168-.816-.216-.816-.408 0-.144.12-.324.36-.456.936-.048 1.524-.888 1.524-1.62 0-.132-.024-.252-.06-.36h.636l.12-.408h-1.08a.94.94 0 00-.528-.144c-.984 0-1.608.864-1.608 1.62 0 .492.288.828.732.888-.456.216-.72.444-.72.732 0 .168.06.288.204.384-1.056.312-1.488.696-1.488 1.164 0 .492.648.696 1.404.696 1.308.012 2.388-.684 2.388-1.272m-4.872-2.868c.468 0 .48.204.408.72h.264l.624-1.704h-.264c-.228.408-.42.72-.924.72H14.64l.504-1.404c.18-.504.264-.6.912-.6h.456c.66 0 .732.18.732.876h.264l.216-1.164h-3.912l-.072.216c.756.156.828.228.48 1.2l-.78 2.1c-.36.972-.504 1.044-1.38 1.2l-.06.228h4.344l.78-1.236h-.3c-.504.492-1.008.948-1.992.948-1.152 0-1.056-.06-.672-1.128l.36-.96h1.044v-.012zm.564-2.928l1.116-.804v-.144H16.5l-.66.96h.288v-.012zm16.62-6.108c.264 0 .492.204.372.66l-1.212.324c.192-.564.552-.984.84-.984m.672 1.956h-.24c-.3.36-.636.648-.96.648-.336 0-.504-.204-.504-.648 0-.18.024-.372.06-.54l1.956-.648c.384-.912-.084-1.308-.612-1.308-.924 0-1.98 1.62-1.98 2.916 0 .612.288.936.744.936.528.012 1.08-.504 1.536-1.356m-.312-2.916l1.116-1.02v-.144h-.744l-.66 1.164h.288zm-4.176.984h.648l-1.032 2.832c-.096.24.036.48.288.48.732 0 1.608-.624 1.944-1.512h-.18c-.264.372-.84.78-1.272.852l.948-2.652h.972l.12-.408h-.948l.36-1.02h-.372l-.672 1.02-.804.108v.3zm-.336.312c.132-.456.06-.864-.288-.864-.444 0-.576.3-1.02 1.236v-.528c0-.372-.12-.708-.456-.708-.396 0-.756.612-1.032 1.224h.18c.192-.276.372-.444.504-.444.168 0 .264.264 0 .84l-.768 1.704c-.144.324.012.528.324.528.192 0 .276-.048.36-.252l.756-1.992c.216-.264.408-.492.648-.744h.792zm-4.176-.336c.264 0 .492.204.372.66l-1.212.324c.204-.564.552-.984.84-.984m.672 1.956h-.24c-.3.36-.636.648-.96.648-.336 0-.504-.204-.504-.648 0-.18.024-.372.06-.54l1.956-.648c.384-.912-.072-1.308-.612-1.308-.924 0-1.98 1.62-1.98 2.916 0 .612.288.936.744.936.528.012 1.08-.504 1.536-1.356m-4.572.792c-.192 0-.468-.18-.468-.336 0-.048.084-.264.192-.54l.312-.84c.336-.408.864-.84 1.152-.84.18 0 .312.108.312.372.012.78-.72 2.184-1.5 2.184m2.184-2.484c0-.576-.144-.792-.552-.792-.504 0-.972.54-1.44 1.188l1.008-2.7-.06-.084-1.236.144v.144l.24.18c.216.168.144.336-.048.852l-1.092 2.856c-.096.24-.204.528-.204.6 0 .336.456.66.876.66.936.012 2.508-1.716 2.508-3.048m-3.672-.384c.072-.264-.096-.408-.24-.408-.564 0-1.236.516-1.512 1.224h.18c.18-.264.492-.552.792-.6l-1.08 2.82c-.096.264.096.408.24.408.54 0 1.164-.516 1.44-1.224h-.18c-.18.264-.492.552-.792.6l1.152-2.82zm.12-1.128a.45.45 0 00.444-.444.443.443 0 10-.888 0c0 .252.192.444.444.444m-2.76-.528h-2.58l-.072.216c.756.156.828.228.48 1.2l-.78 2.124c-.36.972-.504 1.044-1.368 1.2l-.072.216h3.924l.852-1.512h-.3c-.492.54-1.044 1.224-1.92 1.224-.66 0-.756-.12-.384-1.128l.768-2.112c.36-.972.504-1.044 1.38-1.2l.072-.228z"/><text fill="#1E1E1E" font-family="Marianne-Bold, Marianne" font-size="12" font-weight="bold" letter-spacing=".055"><tspan x="12" y="42">MINISTÈRE</tspan> <tspan x="12" y="54">DU TRAVAIL</tspan></text><path fill="#FFF" d="M12 12h33v12H12z"/><path fill="#000091" fill-rule="nonzero" d="M25.69 22.59c.128-.13.256-.266.385-.406h-.004c.24-.273.474-.534.754-.772.085-.078.167-.144.245-.199.023-.023.023-.07.046-.09-.112.044-.179.137-.295.18-.023 0-.047-.023-.023-.047a5.6 5.6 0 00.24-.183h-.015c-.023 0-.023-.023-.023-.047-.296-.046-.521.16-.723.34-.047.023-.09-.024-.113-.024-.338.113-.587.41-.925.542v-.047c-.136.047-.268.129-.408.16-.202.047-.385.023-.564.023-.276.027-.548.09-.82.148-.008.004-.016.004-.023.008a1.7 1.7 0 00-.42.172l-.016.007c-.011.016-.023.028-.03.04a.524.524 0 01-.156.136c-.14.07-.253.195-.373.292-.008.008-.024.012-.035.012-.12.117-.241.234-.366.347-.008.007-.042.011-.07.007 0 0 .004 0 .004-.004l.012-.023.058-.093.066-.106c.031-.046.062-.093.097-.136.008-.012.008-.024 0-.031a.044.044 0 00-.03-.012 2.11 2.11 0 01.38-.285v-.003c-.015.003-.039-.008-.027-.024.016-.02.027-.043.039-.062l.008-.02c-.004-.007-.012-.011-.016-.02-.035.024-.074.048-.105.075-.054.047-.097.148-.179.148-.004 0-.023 0-.035-.004a.033.033 0 01-.023-.008c0-.004 0-.004.004-.004 0 0 .004-.003.004-.007 0 0 0-.004.004-.004.004-.008.008-.012.011-.02.004-.008.008-.011.012-.02.004-.003.004-.01.008-.015.004-.008.011-.02.015-.031l.012-.02c.012-.015.02-.035.031-.05a.082.082 0 01.016-.024c.007-.015.015-.027.023-.042.012-.02 0-.035-.016-.04a.524.524 0 01.156-.136h-.008c.086-.043.175-.097.26-.144a.152.152 0 01.04-.031 1.399 1.399 0 00-.358.18s-.031.01-.039.019c0 0-.023.007-.054-.02-.004-.004-.004-.008-.004-.015.023-.047.09-.067.136-.113.023 0 .042 0 .042.023.723-.565 1.718-.429 2.554-.725.066-.047.136-.09.202-.136.113-.047.202-.16.338-.226.18-.137.315-.293.385-.523 0-.023-.023-.046-.023-.046a3.575 3.575 0 01-.995.748c-.474.25-.995.206-1.489.273.024-.047.07-.047.113-.047 0-.07.043-.09.09-.137h.065c.024 0 .024-.046.047-.046.047 0 .113-.024.09-.024-.07-.09-.203.067-.315 0 .042-.046.023-.113.066-.136h.09c0-.047.046-.09.046-.09.338-.202.657-.362.971-.541-.066 0-.112.07-.178.023.046 0 0-.066.046-.066.25-.067.451-.203.7-.297-.09 0-.16.07-.249 0 .047-.023.066-.066.136-.066v-.066c0-.023.024-.023.047-.023-.023 0-.047-.024-.047-.024.024-.047.09-.023.136-.066-.023 0-.066 0-.066-.023.066-.09.179-.114.292-.137-.024-.047-.09 0-.09-.047 0-.023.024-.023.047-.023h-.047c-.046-.023-.023-.07-.023-.09.136-.16.136-.362.202-.541-.023 0-.047 0-.047-.024-.225.25-.586.34-.925.429h-.112a.446.446 0 01-.385-.023c-.09-.047-.136-.113-.226-.18a2.786 2.786 0 00-.563-.273 5.074 5.074 0 00-1.738-.249c.25-.136.521-.148.79-.226.384-.113.746-.25 1.15-.226-.066-.023-.16 0-.226 0-.314-.023-.633.066-.971.136-.226.047-.428.137-.657.18-.136.046-.202.179-.362.16v-.07c.226-.274.498-.543.86-.566.408-.066.788 0 1.197.047.291.023.563.09.859.16.112 0 .136.179.225.202.136.047.272 0 .408.09 0-.047-.023-.09 0-.136.09-.09.202.023.292-.024.182-.113-.16-.316-.25-.475 0-.024.024-.047.024-.047.179.16.315.339.54.452.113.047.385.113.339-.023-.113-.25-.338-.452-.521-.678v-.09c-.047 0-.047-.024-.066-.047v-.09c-.09-.046-.07-.136-.113-.202-.07-.113-.023-.273-.07-.41a2.305 2.305 0 01-.09-.385c-.07-.386-.159-.725-.201-1.088-.047-.428.248-.771.45-1.153.16-.273.339-.542.634-.725.066-.273.249-.499.428-.725.178-.222.482-.355.695-.452.315-.14.599-.23.603-.23H12v12h11.078c.431-.312.859-.456 1.461-.756.28-.14.93-.44 1.15-.659m-3.474-1.621c-.047 0-.136.023-.113-.024.023-.113.179-.113.272-.16.047-.023.113-.066.16-.046.046.066.112.047.159.09-.14.14-.319.07-.478.14m-3.456-.499s-.023-.023-.023-.047c.295-.386.52-.748.723-1.153.295-.16.536-.39.77-.636.384-.409.789-.771 1.263-.997.179-.07.408-.047.587.023-.066.09-.179.066-.272.136-.024 0-.047 0-.07-.023.023-.023.023-.047.023-.07-.225.25-.54.362-.723.658-.136.227-.225.523-.517.589-.09.023.023-.066-.023-.047-.7.433-1.193.955-1.738 1.567m1.874-1.497c-.023.047-.047.051-.066.09a.182.182 0 01-.09.09c-.023 0-.046 0-.046-.024.023-.09.09-.179.179-.202.023.004.023.027.023.046m1.05 3.395c-.012.023-.036.047-.055.066.027.004.047.02.031.035-.05.047-.101.098-.171.121-.004 0-.02.004-.035.004-.027.027-.054.055-.086.078-.027.023-.151.008-.112-.027.058-.051.112-.106.167-.16.031-.031.066-.059.093-.09.016-.02.027-.035.047-.05.02-.012.14-.024.12.023m-.404-.187c-.004 0-.004 0-.004.004-.085.058-.167.12-.256.171-.098.055-.199.098-.3.148 0 0 0-.004-.004-.004-.007-.011-.023-.015-.038-.007a1 1 0 00-.226.175.118.118 0 00-.03.031l-.032.031-.004.004v.004c-.015.016-.031.031-.05.055-.012.011-.016.023-.032.031-.015.008-.054.008-.05-.016v-.004a.181.181 0 01-.039.02l-.035.02c-.004-.004-.012-.004-.015-.004-.004 0-.012 0-.016.003-.027.024-.054.043-.082.07-.046.043-.089.09-.132.14 0 0 0 .005-.004.005 0 .004-.004.004-.004.008l-.007.007c-.004.004-.004.008-.008.008l-.004.004a.082.082 0 01-.016.023.03.03 0 01-.019.008c-.004-.004-.008-.008-.008-.011-.004-.004-.004-.008-.008-.012-.007-.012-.011-.023-.019-.035v-.004c0-.004-.004-.008-.004-.012l.07-.082.004-.004c.008-.007.016-.019.023-.027.012-.015.028-.031.04-.047.003-.007.007-.011.01-.019.024-.031.048-.062.07-.097v-.004c.005-.004.009-.008.009-.016.011-.016.023-.031.03-.047l.024-.047v-.003l.004-.004c0-.004.004-.004.004-.008l.023-.055v-.004l.004-.015c.004-.008.004-.016.008-.024v-.003c.004-.012.004-.024.008-.036 0-.003 0-.011-.004-.015a.646.646 0 01.09-.12c-.005 0-.009.003-.013.003-.03.02-.054.05-.085.074-.023.02-.07-.012-.039-.035a.458.458 0 00.05-.047s0-.004.004-.004c.04-.035.074-.082.117-.113a1.097 1.097 0 00.082-.062.677.677 0 01.05-.059s.004 0 .004-.003c.218-.21.58-.2.867-.332.113-.046.249.024.361 0 .066 0 .136 0 .202.047-.198.105-.384.23-.57.347m.213-3.484c.023 0 .07 0 .07.023 0 .113-.07.203-.183.226.183.047.362.047.54.137-.023.046-.066.023-.089.023.113.066.249.023.362.113-.07.066-.137 0-.203 0 .7.203 1.446.362 2.033.814-.497.25-1.018.363-1.558.476-.066 0-.113 0-.18-.023 0 .023 0 .066-.023.066-.089 0-.159 0-.225.047-.093.05-.23.074-.295.007-.024-.023.07 0 .089-.046h-.179c-.023 0-.023-.024-.023-.047-.113.023-.249.066-.362.09-.159.046-.295.16-.474.202-.249.09-.45.296-.723.386-.023 0-.023-.023-.023-.047.023-.066.113-.09.16-.16 0-.023 0-.046-.024-.046.179-.25.428-.386.657-.589v-.07c.066-.09.179-.136.225-.25a.406.406 0 01.226-.202c-.024-.023-.066-.023-.066-.066-.09 0-.183.046-.272-.024a.324.324 0 01.14-.082.08.08 0 01-.051-.03c-.023-.048.043-.098.113-.114.09-.023.202-.023.272-.09-.16-.023-.338.047-.498-.046.113-.292.296-.542.564-.678z"/><path fill="#E1000F" fill-rule="nonzero" d="M44.969 12H32.11s.023.004.12.055c.105.054.241.128.323.171.167.086.327.195.432.363.046.066.112.203.07.293-.047.113-.07.296-.183.34-.136.07-.315.07-.474.046-.09 0-.18-.024-.272-.047.338.137.656.297.882.613.023.046.113.066.202.066.023 0 .023.047.023.066-.046.047-.09.07-.066.137h.066c.113-.047.09-.273.249-.203.113.066.16.226.09.34-.09.089-.18.16-.273.226a.192.192 0 000 .16c.066.09.09.179.113.273.07.16.09.339.16.499.089.34.178.679.159 1.022 0 .18-.09.34-.024.523.047.18.16.316.25.476.089.136.178.226.248.363.136.226.385.452.272.725-.066.16-.315.137-.474.226-.136.114-.023.297.047.41.112.203-.137.34-.296.41.047.07.136.046.16.09.023.113.136.179.066.296-.09.136-.362.203-.226.41.09.16.031.335-.023.499-.066.203-.249.292-.408.34a.887.887 0 01-.428.023c-.047-.024-.09-.047-.136-.047-.385-.047-.77-.156-1.15-.156-.113.023-.226.043-.315.09a1.826 1.826 0 00-.272.241l-.004.004c-.016.02-.035.035-.05.055-.009.012-.02.023-.028.035-.008.008-.012.016-.02.023a2.385 2.385 0 00-.178.262.04.04 0 01-.012.015c-.004.012-.012.02-.02.032a2.247 2.247 0 00-.17.417c-.156.519-.086.964.023 1.073.031.031.746.253 1.244.476.233.105.396.183.532.269h12.625V12h.004z"/><path fill="gray" fill-rule="nonzero" d="M32.877 16.373c.09.023.225.023.225.07-.047.178-.315.225-.45.407h-.07c-.067.047-.047.16-.113.16-.067-.024-.136 0-.203.023.09.09.203.16.339.136.023 0 .066.047.066.09 0 0 .023 0 .046-.024.024 0 .047 0 .047.023v.09c-.066.089-.183.046-.272.066a.987.987 0 00.52 0c.137-.047 0-.272.09-.385-.047 0 0-.07-.047-.07.047-.046.09-.112.137-.136.046 0 .112-.023.136-.07 0-.046-.09-.066-.07-.112.136-.09.248-.225.202-.361-.024-.07-.202-.07-.315-.113-.113-.043-.249 0-.385.023-.113 0-.225.07-.338.09-.16.046-.295.136-.428.225.16-.066.315-.09.498-.136.136.004.249-.027.385.004"/></g></svg>