<svg xmlns="http://www.w3.org/2000/svg" width="169" height="151"><g fill="none" fill-rule="evenodd"><path fill="#FFF" d="M0 .116h169v150.209H0z"/><path fill="#1E1E1E" fill-rule="nonzero" d="M69.5 124.326c.44 0 .82.34.62 1.12l-2.02.54c.32-.96.92-1.66 1.4-1.66m1.12 3.28h-.4c-.5.6-1.06 1.08-1.6 1.08-.56 0-.84-.34-.84-1.08 0-.3.04-.62.1-.9l3.26-1.08c.64-1.52-.12-2.18-1.02-2.18-1.54 0-3.3 2.7-3.3 4.86 0 1.02.48 1.58 1.24 1.58.88-.02 1.8-.88 2.56-2.28m-.52-4.88l1.86-1.7v-.24h-1.24l-1.1 1.94h.48zm-6.96 1.64h1.08l-1.72 4.72c-.16.4.06.8.48.8 1.22 0 2.68-1.04 3.24-2.52h-.3c-.44.62-1.4 1.3-2.12 1.42l1.58-4.42H67l.2-.68h-1.58l.6-1.7h-.62l-1.12 1.7-1.34.18v.5zm-1.12-.22c.14-.44-.16-.68-.38-.68-.94 0-2.06.84-2.52 2.04h.3c.3-.44.82-.92 1.32-1l-1.8 4.7c-.16.44.16.68.38.68.9 0 1.94-.86 2.4-2.04h-.32c-.3.44-.82.92-1.32 1l1.94-4.7zm.18-1.88c.4 0 .74-.32.74-.74 0-.4-.34-.74-.74-.74-.42 0-.74.34-.74.74 0 .4.34.74.74.74m-8.74 2.5c.28 0 .44.44 0 1.4l-1.28 2.84c-.24.54.02.88.54.88.32 0 .46-.08.6-.42l1.26-3.32c.58-.7 1.66-1.46 2.12-1.46.34 0 .3.28.08.7l-1.92 3.7c-.18.36.06.8.48.8.94 0 2.06-.84 2.52-2.04h-.3c-.3.44-.82.92-1.32 1l1.66-3.34c.22-.42.32-.82.32-1.14 0-.54-.3-.9-.88-.9-.82 0-1.52.92-2.5 2.06v-.88c0-.62-.2-1.18-.76-1.18-.66 0-1.26 1.02-1.72 2.04h.3c.28-.48.56-.74.8-.74m-1.3.12c.22-.76.1-1.44-.48-1.44-.74 0-.96.5-1.7 2.06v-.88c0-.62-.2-1.18-.76-1.18-.66 0-1.26 1.02-1.72 2.04h.3c.32-.46.62-.74.86-.74.28 0 .44.44 0 1.4l-1.28 2.84c-.24.54.02.88.54.88.32 0 .46-.08.6-.42l1.26-3.32c.36-.44.68-.82 1.08-1.24h1.3zm-6.94-.56c.44 0 .82.34.62 1.12l-2.02.54c.32-.96.92-1.66 1.4-1.66m1.12 3.28h-.4c-.5.6-1.06 1.08-1.6 1.08-.56 0-.84-.34-.84-1.08 0-.3.04-.62.1-.9l3.26-1.08c.64-1.52-.12-2.18-1.02-2.18-1.54 0-3.3 2.7-3.3 4.86 0 1.02.48 1.58 1.24 1.58.88-.02 1.8-.88 2.56-2.28m-7.48-3.24h1.08l-1.72 4.72c-.16.4.06.8.48.8 1.22 0 2.68-1.04 3.24-2.52h-.3c-.44.62-1.4 1.3-2.12 1.42l1.58-4.42h1.62l.2-.68h-1.58l.6-1.7h-.62l-1.12 1.7-1.34.18v.5zm-5.72 3.66c0-1.46 1.62-3.42 2.52-3.42.2 0 .4.02.56.08l-.94 2.52c-.54.66-1.38 1.46-1.78 1.46-.22 0-.36-.2-.36-.64m4.96-4.84l-.5-.04-.56.56h-.1c-2.38 0-4.92 2.96-4.92 5.28 0 .54.3.9.88.9.7 0 1.38-1 2.14-2.06l-.04.38c-.1 1.08.24 1.68.8 1.68.66 0 1.26-1.02 1.72-2.04h-.3c-.32.46-.62.74-.86.74s-.42-.44 0-1.4l1.74-4zm-5.08 1.7c.22-.76.1-1.44-.48-1.44-.74 0-.96.5-1.7 2.06v-.88c0-.62-.2-1.18-.76-1.18-.66 0-1.26 1.02-1.72 2.04h.3c.32-.46.62-.74.84-.74.28 0 .44.44 0 1.4l-1.28 2.86c-.24.54.02.88.54.88.32 0 .46-.08.6-.42l1.26-3.32c.36-.44.68-.82 1.08-1.24h1.32v-.02zm-8.36 4.76l.12-.36c-1.58-.3-1.78-.3-1.14-2l.58-1.6h1.26c.78 0 .78.34.68 1.2h.44l1.04-2.84h-.44c-.38.68-.7 1.2-1.54 1.2H24.4l.86-2.34c.3-.84.44-1 1.52-1h.28c1.1 0 1.22.3 1.22 1.46h.44l.36-1.94h-6.06l-.12.36c1.26.26 1.38.38.8 2l-1.3 3.48c-.6 1.62-.84 1.74-2.28 2l-.12.38h4.66zm30.14-19.04c.44 0 .82.34.62 1.1l-2.02.54c.34-.94.94-1.64 1.4-1.64m1.12 3.26h-.4c-.5.6-1.06 1.08-1.6 1.08-.56 0-.84-.34-.84-1.08 0-.3.04-.62.1-.9l3.28-1.08c.64-1.52-.14-2.18-1.02-2.18-1.54 0-3.3 2.7-3.3 4.86 0 1.02.48 1.58 1.24 1.58.88 0 1.8-.86 2.54-2.28m-.52-4.86l1.86-1.7v-.24h-1.24l-1.1 1.94h.48zm-6.94 1.64h1.08l-1.72 4.72c-.16.4.06.8.48.8 1.22 0 2.68-1.04 3.24-2.52h-.3c-.44.62-1.4 1.3-2.12 1.42l1.58-4.42h1.62l.2-.68h-1.58l.6-1.7h-.62l-1.12 1.7-1.34.18v.5zm-1.12-.24c.12-.44-.16-.68-.4-.68-.94 0-2.06.86-2.52 2.04h.3c.3-.44.82-.92 1.32-1l-1.8 4.7c-.16.44.16.68.38.68.9 0 1.94-.86 2.4-2.04h-.3c-.3.44-.82.92-1.32 1l1.94-4.7zm.18-1.86c.4 0 .74-.34.74-.74 0-.4-.34-.74-.74-.74-.42 0-.74.34-.74.74 0 .4.34.74.74.74m-5.78 6.56l2.98-7.92-.1-.12-2.06.24v.24l.4.3c.36.28.24.54-.08 1.42l-2.28 6.08c-.18.36.06.8.48.8.94 0 1.94-.86 2.4-2.04h-.3c-.32.44-.96.92-1.44 1m-6.1-.8c0-1.46 1.62-3.42 2.52-3.42.2 0 .38.02.56.08l-.94 2.52c-.54.66-1.38 1.46-1.76 1.46-.24 0-.38-.2-.38-.64m4.96-4.84l-.5-.04-.56.56h-.1c-2.38 0-4.92 2.96-4.92 5.28 0 .54.3.9.88.9.7 0 1.38-1 2.14-2.06l-.04.38c-.1 1.08.24 1.68.8 1.68.66 0 1.26-1.02 1.72-2.04h-.3c-.32.46-.62.74-.86.74s-.42-.44 0-1.4l1.74-4zm-11.54 7.84c0-.62.6-1.02 1.46-1.36.28.14.7.3 1.28.48.9.3 1.24.42 1.24.68 0 .58-.82 1.02-2.32 1.02-1.12 0-1.66-.24-1.66-.82m2.46-3.82c-.4 0-.54-.34-.54-.7 0-1.16.56-2.6 1.46-2.6.4 0 .54.34.54.7-.02 1.18-.58 2.6-1.46 2.6m2.54 3.24c0-.76-.68-1.02-1.78-1.36-.94-.28-1.36-.36-1.36-.68 0-.24.2-.54.6-.76 1.56-.08 2.54-1.48 2.54-2.7 0-.22-.04-.42-.1-.6h1.06l.2-.68h-1.8c-.24-.16-.54-.24-.88-.24-1.64 0-2.68 1.44-2.68 2.7 0 .82.48 1.38 1.22 1.48-.76.36-1.2.74-1.2 1.22 0 .28.1.48.34.64-1.76.52-2.48 1.16-2.48 1.94 0 .82 1.08 1.16 2.34 1.16 2.18.02 3.98-1.14 3.98-2.12m-8.12-4.78c.78 0 .8.34.68 1.2h.44l1.04-2.84h-.44c-.38.68-.7 1.2-1.54 1.2H24.4l.84-2.34c.3-.84.44-1 1.52-1h.76c1.1 0 1.22.3 1.22 1.46h.44l.36-1.94h-6.52l-.12.36c1.26.26 1.38.38.8 2l-1.3 3.5c-.6 1.62-.84 1.74-2.3 2l-.1.38h7.24l1.3-2.06h-.5c-.84.82-1.68 1.58-3.32 1.58-1.92 0-1.76-.1-1.12-1.88l.6-1.6h1.74v-.02zm.94-4.88l1.86-1.34v-.24H27.5l-1.1 1.6h.48v-.02zm27.7-10.18c.44 0 .82.34.62 1.1l-2.02.54c.32-.94.92-1.64 1.4-1.64m1.12 3.26h-.4c-.5.6-1.06 1.08-1.6 1.08-.56 0-.84-.34-.84-1.08 0-.3.04-.62.1-.9l3.26-1.08c.64-1.52-.14-2.18-1.02-2.18-1.54 0-3.3 2.7-3.3 4.86 0 1.02.48 1.56 1.24 1.56.88.02 1.8-.84 2.56-2.26m-.52-4.86l1.86-1.7v-.24H55.8l-1.1 1.94h.48zm-6.96 1.64h1.08l-1.72 4.72c-.16.4.06.8.48.8 1.22 0 2.68-1.04 3.24-2.52H51c-.44.62-1.4 1.3-2.12 1.42l1.58-4.42h1.62l.2-.68H50.7l.6-1.7h-.62l-1.12 1.7-1.34.18v.5zm-.56.52c.22-.76.1-1.44-.48-1.44-.74 0-.96.5-1.7 2.06v-.88c0-.62-.2-1.18-.76-1.18-.66 0-1.26 1.02-1.72 2.04h.3c.32-.46.62-.74.84-.74.28 0 .44.44 0 1.4l-1.28 2.84c-.24.54.02.88.54.88.32 0 .46-.08.6-.42l1.26-3.32c.36-.44.68-.82 1.08-1.24h1.32zm-6.96-.56c.44 0 .82.34.62 1.1l-2.02.54c.34-.94.92-1.64 1.4-1.64m1.12 3.26h-.4c-.5.6-1.06 1.08-1.6 1.08-.56 0-.84-.34-.84-1.08 0-.3.04-.62.1-.9l3.26-1.08c.64-1.52-.12-2.18-1.02-2.18-1.54 0-3.3 2.7-3.3 4.86 0 1.02.48 1.56 1.24 1.56.88.02 1.8-.84 2.56-2.26m-7.62 1.32c-.32 0-.78-.3-.78-.56 0-.08.14-.44.32-.9l.52-1.4c.56-.68 1.44-1.4 1.92-1.4.3 0 .52.18.52.62.02 1.3-1.2 3.64-2.5 3.64m3.64-4.14c0-.96-.24-1.32-.92-1.32-.84 0-1.62.9-2.4 1.98l1.68-4.5-.1-.14-2.06.24v.24l.4.3c.36.28.24.56-.08 1.42l-1.82 4.76c-.16.4-.34.88-.34 1 0 .56.76 1.1 1.46 1.1 1.56.02 4.18-2.86 4.18-5.08m-6.12-.64c.12-.44-.16-.68-.4-.68-.94 0-2.06.86-2.52 2.04h.3c.3-.44.82-.92 1.32-1l-1.8 4.7c-.16.44.16.68.4.68.9 0 1.94-.86 2.4-2.04h-.3c-.3.44-.82.92-1.32 1l1.92-4.7zm.2-1.88c.4 0 .74-.34.74-.74 0-.4-.34-.74-.74-.74-.42 0-.74.34-.74.74 0 .42.32.74.74.74m-4.6-.88h-4.3l-.12.36c1.26.26 1.38.38.8 2l-1.3 3.54c-.6 1.62-.84 1.74-2.28 2l-.12.36h6.54l1.42-2.52h-.5c-.82.9-1.74 2.04-3.2 2.04-1.1 0-1.26-.2-.64-1.88l1.28-3.52c.6-1.62.84-1.74 2.3-2l.12-.38z"/><text fill="#1E1E1E" font-family="Marianne-Bold, Marianne" font-size="20" font-weight="bold" letter-spacing=".1" transform="translate(0 .116)"><tspan x="20" y="68.649">RÉPUBLIQUE</tspan> <tspan x="20" y="89.649">FRANÇAISE</tspan></text><path fill="#FFF" d="M20 20.116h55v20H20z"/><path fill="#000091" fill-rule="nonzero" d="M42.816 37.765c.214-.215.428-.442.642-.676h-.007c.402-.455.79-.89 1.257-1.286.142-.13.278-.24.408-.331.039-.04.039-.117.078-.15-.188.072-.298.228-.493.299-.038 0-.077-.039-.038-.078.136-.097.272-.201.401-.305h-.026c-.039 0-.039-.04-.039-.078-.492-.078-.868.266-1.205.565-.077.039-.149-.039-.187-.039-.564.188-.979.682-1.542.903v-.078c-.227.078-.447.214-.68.266-.337.078-.642.04-.94.04-.46.045-.913.149-1.367.246-.013.007-.026.007-.039.013a2.834 2.834 0 00-.7.286l-.025.013c-.02.026-.039.045-.052.065a.874.874 0 01-.26.227c-.232.117-.42.325-.621.487-.013.013-.039.02-.058.02-.201.195-.402.39-.61.578-.012.013-.07.02-.116.013 0 0 .007 0 .007-.007l.02-.039c.031-.052.064-.104.096-.155.04-.059.072-.117.11-.176.052-.078.104-.156.162-.227.013-.02.013-.04 0-.052a.073.073 0 00-.051-.02c.187-.182.408-.337.634-.474v-.006c-.026.006-.064-.013-.045-.04.026-.032.045-.07.065-.103.006-.013.006-.02.013-.033-.007-.013-.02-.02-.026-.032-.058.039-.123.078-.175.123-.09.078-.162.247-.298.247-.007 0-.039 0-.058-.006a.06.06 0 01-.04-.013c0-.007 0-.007.007-.007 0 0 .007-.006.007-.013 0 0 0-.006.006-.006l.02-.033c.006-.013.013-.02.02-.032.006-.007.006-.02.012-.026.007-.013.02-.033.026-.052.006-.013.013-.02.02-.033.019-.026.032-.058.051-.084a.136.136 0 01.026-.04l.039-.07c.02-.033 0-.06-.026-.066a.874.874 0 01.26-.227h-.014c.143-.071.292-.162.434-.24.02-.02.04-.04.065-.052a2.332 2.332 0 00-.596.299s-.052.019-.065.032c0 0-.039.013-.09-.032-.007-.007-.007-.013-.007-.026.039-.078.15-.11.227-.189.039 0 .071 0 .071.04 1.205-.943 2.863-.715 4.256-1.209.11-.078.227-.15.337-.227.188-.078.337-.267.564-.377.298-.227.525-.487.641-.87 0-.04-.039-.078-.039-.078a5.958 5.958 0 01-1.658 1.247c-.79.415-1.659.344-2.481.454.039-.078.116-.078.188-.078 0-.117.07-.149.149-.227h.11c.039 0 .039-.078.077-.078.078 0 .188-.039.15-.039-.117-.15-.337.11-.525 0 .07-.078.039-.188.11-.227h.149c0-.078.078-.15.078-.15.563-.337 1.094-.604 1.62-.902-.111 0-.189.116-.299.038.078 0 0-.11.078-.11.414-.11.751-.338 1.166-.494-.15 0-.266.117-.415 0 .078-.039.11-.11.227-.11v-.11c0-.04.039-.04.078-.04-.04 0-.078-.038-.078-.038.039-.078.149-.04.227-.11-.04 0-.11 0-.11-.04.11-.15.298-.188.486-.227-.04-.078-.15 0-.15-.078 0-.04.04-.04.078-.04h-.077c-.078-.038-.04-.116-.04-.148.227-.267.227-.605.338-.903-.04 0-.078 0-.078-.04-.376.416-.978.566-1.542.715h-.188a.744.744 0 01-.641-.039c-.15-.078-.227-.188-.376-.299a4.644 4.644 0 00-.94-.454 8.457 8.457 0 00-2.895-.416c.415-.227.868-.247 1.315-.377.641-.188 1.244-.415 1.918-.376-.11-.04-.266 0-.376 0-.525-.04-1.056.11-1.62.227-.375.078-.712.227-1.095.299-.226.078-.336.298-.602.266v-.117c.376-.455.83-.903 1.432-.942.68-.11 1.315 0 1.995.078.486.04.94.15 1.432.266.187 0 .226.3.375.338.227.078.454 0 .68.15 0-.078-.038-.15 0-.228.15-.15.337.04.486-.039.305-.188-.265-.526-.414-.792 0-.04.039-.078.039-.078.298.266.524.565.9.753.188.078.642.189.564-.039-.188-.415-.564-.753-.868-1.13v-.15c-.078 0-.078-.038-.11-.077v-.15c-.15-.078-.117-.227-.188-.337-.117-.189-.04-.455-.117-.682a3.842 3.842 0 01-.149-.643c-.117-.644-.266-1.209-.337-1.813-.078-.714.415-1.286.752-1.922.265-.455.563-.903 1.056-1.209.11-.454.414-.831.712-1.208.298-.37.804-.59 1.16-.753a9.65 9.65 0 011.004-.384H20v20h18.463c.719-.52 1.432-.76 2.436-1.26.466-.234 1.548-.734 1.917-1.097m-5.791-2.703c-.078 0-.227.04-.188-.039.039-.188.298-.188.453-.266.078-.039.188-.11.266-.078.078.11.188.078.266.15-.234.233-.532.116-.797.233m-5.76-.831s-.038-.039-.038-.078c.492-.643.868-1.247 1.205-1.923.492-.266.894-.65 1.282-1.058.642-.683 1.315-1.287 2.106-1.663.298-.117.68-.078.978.039-.11.149-.298.11-.453.227-.04 0-.078 0-.117-.039.039-.039.039-.078.039-.117-.376.416-.9.604-1.205 1.098-.227.377-.376.87-.862.98-.149.04.04-.11-.039-.077-1.166.72-1.988 1.591-2.895 2.61m3.122-2.493c-.039.078-.078.084-.11.149a.304.304 0 01-.149.15c-.039 0-.078 0-.078-.04.04-.149.15-.298.298-.337.04.006.04.045.04.078m1.748 5.657a.484.484 0 01-.09.11c.045.007.077.033.051.06-.084.077-.168.162-.285.2-.006 0-.032.007-.058.007a1.18 1.18 0 01-.143.13c-.045.039-.252.013-.187-.045a5.4 5.4 0 00.278-.267c.052-.052.11-.097.156-.15.026-.032.045-.058.077-.084.033-.02.234-.039.201.04m-.674-.312c-.006 0-.006 0-.006.006-.143.097-.279.201-.428.286-.162.09-.33.162-.498.247 0 0 0-.007-.007-.007-.013-.02-.039-.026-.065-.013a1.668 1.668 0 00-.375.292.197.197 0 00-.052.052l-.052.052-.007.007v.006a1.249 1.249 0 00-.084.091c-.02.02-.026.04-.052.052-.025.013-.09.013-.084-.026v-.006a.302.302 0 01-.065.032c-.019.013-.038.02-.058.033-.006-.007-.02-.007-.026-.007-.006 0-.02 0-.026.007-.045.039-.09.071-.136.117-.077.071-.149.15-.22.234 0 0 0 .006-.006.006 0 .007-.007.007-.007.013l-.013.013c-.006.007-.006.013-.013.013l-.006.007a.136.136 0 01-.026.038.05.05 0 01-.033.013c-.006-.006-.013-.013-.013-.019-.006-.007-.006-.013-.013-.02-.012-.019-.019-.038-.032-.058v-.006c0-.007-.006-.013-.006-.02l.116-.136.007-.007c.013-.013.026-.032.039-.045.019-.026.045-.052.064-.078l.02-.033c.039-.052.078-.104.116-.162v-.007c.007-.006.013-.013.013-.026a.542.542 0 00.052-.078l.039-.078v-.006l.007-.006c0-.007.006-.007.006-.013.013-.033.026-.059.039-.091v-.007l.006-.026c.007-.013.007-.026.013-.039v-.006c.007-.02.007-.04.013-.059 0-.006 0-.02-.006-.026.039-.071.09-.136.149-.201-.007 0-.013.006-.02.006-.051.033-.09.085-.142.124-.04.032-.117-.02-.065-.059.032-.026.058-.052.084-.078 0 0 0-.006.007-.006.065-.059.123-.137.194-.189a1.83 1.83 0 00.117-.09c.006-.007.013-.013.02-.013a.9.9 0 01.083-.098s.007 0 .007-.006c.363-.351.965-.332 1.444-.553.188-.077.415.04.603 0 .11 0 .227 0 .337.078-.33.176-.642.384-.953.579m.357-5.808c.039 0 .116 0 .116.04a.37.37 0 01-.304.376c.304.078.602.078.9.228-.038.077-.11.038-.149.038.188.11.415.04.603.189-.117.11-.227 0-.337 0 1.166.338 2.41.604 3.388 1.357-.83.416-1.697.605-2.598.793-.11 0-.188 0-.298-.04 0 .04 0 .111-.039.111-.149 0-.265 0-.375.078-.156.085-.382.124-.493.013-.038-.039.117 0 .15-.078h-.299c-.038 0-.038-.039-.038-.078-.188.04-.415.11-.603.15-.266.078-.492.266-.79.338-.415.149-.752.493-1.205.643-.04 0-.04-.04-.04-.078.04-.11.189-.15.267-.267 0-.039 0-.078-.04-.078.299-.415.713-.643 1.095-.98v-.117c.11-.15.298-.228.376-.416.04-.11.188-.266.376-.338-.039-.039-.11-.039-.11-.11-.15 0-.305.078-.454-.04a.54.54 0 01.234-.136.132.132 0 01-.085-.052c-.039-.078.072-.162.188-.188.15-.039.337-.039.454-.15-.266-.038-.564.079-.83-.077.188-.487.493-.903.94-1.13z"/><path fill="#E1000F" fill-rule="nonzero" d="M74.948 20.148h-21.43s.04.007.201.091c.175.091.402.215.538.286.278.144.544.326.719.605.078.11.188.338.116.488-.077.188-.116.494-.304.565-.227.118-.525.118-.79.078-.15 0-.298-.039-.454-.078.564.228 1.095.495 1.47 1.021.04.078.189.11.338.11.038 0 .038.079.038.111-.077.078-.149.117-.11.228h.11c.188-.078.15-.455.415-.338.188.11.266.377.15.565a3.4 3.4 0 01-.454.378.32.32 0 000 .266c.11.15.149.3.187.455.117.267.15.566.266.833.15.565.298 1.13.266 1.703 0 .3-.15.566-.04.871.079.3.266.527.415.794.15.227.298.377.415.604.227.377.641.754.453 1.21-.11.266-.524.227-.79.377-.227.188-.039.494.078.682.188.339-.227.566-.492.683.077.117.226.078.265.15.039.188.227.299.11.494-.149.227-.602.338-.375.683.149.266.051.559-.04.832-.11.338-.414.487-.68.565a1.479 1.479 0 01-.712.04c-.078-.04-.15-.079-.227-.079-.641-.078-1.283-.26-1.917-.26-.188.04-.376.072-.525.15-.169.123-.324.26-.454.403l-.006.007c-.026.032-.058.058-.084.09-.013.02-.033.04-.046.06-.013.012-.02.025-.032.038-.11.137-.207.286-.298.436a.09.09 0 01-.02.026c-.006.02-.019.032-.032.052a3.746 3.746 0 00-.285.695c-.26.865-.142 1.606.039 1.788.052.053 1.244.423 2.073.794.389.175.66.305.887.448h21.042v-20h.006z"/><path fill="gray" fill-rule="nonzero" d="M54.794 27.404c.15.039.376.039.376.117-.078.297-.525.375-.751.68h-.117c-.11.077-.078.265-.188.265-.11-.04-.226 0-.337.038.15.15.337.266.564.227.039 0 .11.078.11.149 0 0 .039 0 .078-.04.039 0 .078 0 .078.04v.149c-.11.148-.305.077-.454.11.305.077.603.077.868 0 .227-.078 0-.453.15-.641-.079 0 0-.117-.079-.117.078-.077.15-.187.227-.226.078 0 .188-.039.227-.117 0-.077-.15-.11-.117-.187.227-.15.415-.376.337-.602-.039-.117-.337-.117-.525-.188-.187-.071-.414 0-.64.039-.189 0-.377.116-.564.149-.266.077-.493.226-.713.375.266-.11.525-.149.83-.226.226.006.414-.046.64.006"/></g></svg>