<svg xmlns="http://www.w3.org/2000/svg" width="60" height="61" fill="none"><path fill="#FFAD1D" d="M37.077.336c-1.58 0-3.187.231-4.775.717-8.566 2.618-13.374 11.639-10.74 20.15 2.147 6.931 8.566 11.386 15.503 11.386 1.58 0 3.188-.23 4.775-.717 8.566-2.617 13.375-11.637 10.741-20.148C50.434 4.791 44.014.336 37.077.336"/><path fill="#000638" fill-rule="evenodd" d="M45.744 13.799l.068.004c1.197.164 2.181 1.64 2.181 3.37v33.413c0 1.859-1.01 3.375-2.249 3.375H14.256c-1.239 0-2.25-1.516-2.25-3.375V17.174c0-1.86 1.011-3.375 2.25-3.375h31.488zm-.042 2.25H14.256c-.41 0-.75.509-.75 1.125v33.412c0 .616.34 1.125.75 1.125h31.488c.41 0 .75-.509.75-1.125V17.174c0-.52-.365-1.068-.818-1.13l.026.005z" clip-rule="evenodd"/><path fill="#000638" d="M39.444 36.449a.75.75 0 01.134 1.488l-.134.012H19.756a.75.75 0 01-.135-1.488l.135-.012h19.688zm0-14.724a.75.75 0 01.134 1.488l-.134.012H19.756a.75.75 0 01-.135-1.488l.135-.012h19.688zm0 18.695a.75.75 0 01.134 1.488l-.134.012H19.756a.75.75 0 01-.135-1.488l.135-.012h19.688zm0 4.5a.75.75 0 01.134 1.488l-.134.012H19.756a.75.75 0 01-.135-1.488l.135-.012h19.688z"/></svg>