<svg xmlns="http://www.w3.org/2000/svg" width="60" height="61" fill="none"><path fill="#FE5455" d="M37.077.252c-1.58 0-3.187.231-4.775.717-8.566 2.618-13.374 11.639-10.74 20.15 2.147 6.931 8.566 11.386 15.503 11.386 1.58 0 3.188-.23 4.775-.717 8.566-2.617 13.375-11.637 10.741-20.148C50.434 4.707 44.014.252 37.077.252"/><mask id="a" width="52" height="53" x="4" y="6" maskUnits="userSpaceOnUse"><path fill="#fff" fill-rule="evenodd" d="M4.185 6.264h50.824V59H4.185V6.264z" clip-rule="evenodd"/></mask><g fill="#000638" fill-rule="evenodd" clip-rule="evenodd" mask="url(#a)"><path d="M15.729 57.547h23.213V7.7H15.73v49.846zm23.931 1.437H15.01a.72.72 0 01-.72-.718V6.983a.72.72 0 01.72-.72h24.65a.72.72 0 01.719.72v51.282c0 .397-.32.72-.719.72z"/><path d="M24.264 57.192h5.43v-8.72h-5.43v8.72zm6.293 1.725h-7.155a.862.862 0 01-.862-.862V47.608c0-.476.387-.862.862-.862h7.155a.86.86 0 01.86.862v10.447a.86.86 0 01-.86.862zm.226-17.187c.49 0 .884-.466.884-1.047v-4.889c0-.582-.394-1.047-.884-1.047-.491 0-.886.465-.886 1.047v4.89c-.049.58.395 1.047.886 1.047m-6.891-.001c.492 0 .885-.466.885-1.047v-4.889c0-.582-.393-1.047-.885-1.047-.491 0-.885.465-.885 1.047v4.89c-.049.58.394 1.047.885 1.047m6.891-9.956c.49 0 .884-.466.884-1.047v-4.89c0-.582-.394-1.047-.884-1.047-.491 0-.886.465-.886 1.048v4.889c-.049.58.395 1.047.886 1.047m-6.891 0c.492 0 .885-.466.885-1.047v-4.89c0-.582-.393-1.047-.885-1.047-.491 0-.885.465-.885 1.048v4.889c-.049.58.394 1.047.885 1.047m6.891-10.73c.49 0 .884-.466.884-1.048V15.11c0-.583-.394-1.048-.884-1.048-.491 0-.886.465-.886 1.048v4.888c-.049.582.395 1.048.886 1.048m-6.891-.001c.492 0 .885-.466.885-1.048V15.11c0-.583-.393-1.048-.885-1.048-.491 0-.885.465-.885 1.048v4.888c-.049.582.394 1.048.885 1.048M45.48 32.768h-.873c-.583 0-1.048.466-1.048 1.047 0 .583.465 1.048 1.048 1.048h.873c.582 0 1.047-.465 1.047-1.047 0-.582-.465-1.048-1.047-1.048m0-5.878h-.873c-.583 0-1.048.466-1.048 1.048 0 .582.465 1.047 1.048 1.047h.873c.582 0 1.047-.465 1.047-1.047 0-.525-.465-1.048-1.047-1.048m0 11.64h-.873c-.583 0-1.048.466-1.048 1.047 0 .583.465 1.048 1.048 1.048h.873c.582 0 1.047-.465 1.047-1.048 0-.581-.465-1.047-1.047-1.047M5.623 57.547h8.668V35.525H5.623v22.022zm9.387 1.437H4.904a.72.72 0 01-.72-.718v-23.46a.72.72 0 01.72-.72H15.01a.72.72 0 01.719.72v23.46a.72.72 0 01-.72.718z"/><path d="M10.394 45.514H9.52c-.583 0-1.048.466-1.048 1.047 0 .582.465 1.047 1.048 1.047h.873c.582 0 1.047-.465 1.047-1.047 0-.581-.465-1.047-1.047-1.047m.001-5.878H9.52c-.583 0-1.048.466-1.048 1.047 0 .583.465 1.048 1.048 1.048h.873c.582 0 1.047-.465 1.047-1.048 0-.524-.465-1.047-1.047-1.047m.001 11.639H9.52c-.583 0-1.048.466-1.048 1.048 0 .582.465 1.048 1.048 1.048h.873c.582 0 1.047-.466 1.047-1.048 0-.582-.465-1.048-1.047-1.048m39.295-7.417c-1.924 0-2.975 3.08-3.809 5.967-.249.861-.107 1.654.423 2.357.719.957 2.081 1.6 3.386 1.6 1.247 0 2.523-.593 3.251-1.512.398-.5.816-1.337.549-2.48-.63-2.706-1.801-5.932-3.8-5.932m0 11.361c-1.76 0-3.543-.853-4.535-2.173-.792-1.053-1.024-2.339-.655-3.619.806-2.79 2.024-7.007 5.19-7.007 2.396 0 4.096 2.304 5.2 7.044a4.275 4.275 0 01-.823 3.7c-1.006 1.267-2.683 2.055-4.377 2.055"/><path d="M49.48 59h.394a.69.69 0 00.69-.69v-7.036c0-.38-.31-.69-.69-.69h-.394a.69.69 0 00-.69.69v7.036c0 .382.309.69.69.69m.616-18.238a.72.72 0 01-.72-.72v-16.12H39.99a.716.716 0 01-.718-.719c0-.396.32-.717.718-.717h10.107c.396 0 .72.32.72.717v16.84a.72.72 0 01-.72.719M46.01 58.984h-6.35a.718.718 0 010-1.438h6.35a.72.72 0 01-.001 1.438"/></g></svg>